<svg
  class="most-popular-game-nintendo-picture"
  xmlns="http://www.w3.org/2000/svg"
  width="20"
  xmlns:xlink="http://www.w3.org/1999/xlink"
  version="1.1"
  x="0px"
  y="0px"
  viewBox="0 0 24 24"
  style="enable-background:new 0 0 24 24;max-width:100%"
  xml:space="preserve"
  height="100%"
>
  <path
    d="M22.726,3.383L18.372,0.48C17.9,0.166,17.351,0,16.785,0c-0.974,0-1.873,0.488-2.403,1.307L4.459,16.643    C4.159,17.107,4,17.645,4,18.236c0,0.959,0.477,1.85,1.274,2.381l4.354,2.903C10.1,23.834,10.649,24,11.215,24    c0.974,0,1.873-0.488,2.403-1.307l9.923-15.335C23.841,6.893,24,6.356,24,5.764C24,4.805,23.523,3.915,22.726,3.383z M11,18    c-0.551,0-1-0.449-1-1s0.449-1,1-1s1,0.449,1,1S11.551,18,11,18z M14.5,13c-0.827,0-1.5-0.673-1.5-1.5s0.673-1.5,1.5-1.5    s1.5,0.673,1.5,1.5S15.327,13,14.5,13z M20.916,7.277l-1,1.5c-0.153,0.229-0.464,0.292-0.693,0.139l-1.084-0.723l-0.723,1.084    C17.32,9.422,17.161,9.5,17,9.5c-0.095,0-0.191-0.027-0.277-0.084l-1.5-1c-0.23-0.153-0.292-0.463-0.139-0.693l0.723-1.084    l-1.084-0.723c-0.23-0.153-0.292-0.463-0.139-0.693l1-1.5c0.152-0.23,0.462-0.292,0.693-0.139l1.084,0.723l0.723-1.084    c0.153-0.229,0.462-0.292,0.693-0.139l1.5,1c0.23,0.153,0.292,0.463,0.139,0.693l-0.723,1.084l1.084,0.723    C21.007,6.737,21.069,7.047,20.916,7.277z"
    fill="white"
  ></path>
</svg>
