<svg
  class="most-popular-game-xbox-title-picture"
  width="20"
  xmlns="http://www.w3.org/2000/svg"
  xmlns:xlink="http://www.w3.org/1999/xlink"
  version="1.1"
  x="0px"
  y="0px"
  viewBox="0 0 100 100"
  enable-background="new 0 0 100 100"
  xml:space="preserve"
  style="max-width:100%"
  height="100%"
>
  <path
    d="M93.406,38.069c-4.952-14.3-26.065-20.463-42.247-21.018v-0.05c-0.06,0-0.117-0.004-0.18-0.004  c-0.359,0-0.738,0.02-1.104,0.024c-0.366-0.004-0.745-0.024-1.104-0.024c-0.063,0-0.119,0.004-0.181,0.004v0.05  C32.412,17.606,11.298,23.77,6.347,38.069C3.386,46.619-5.39,76.334,4.771,83.436c10.29,7.197,21.528-12.602,29.271-15.615  c3.49-1.359,9.07-1.939,14.548-1.91v0.059c0.425-0.018,0.856-0.021,1.285-0.031c0.429,0.01,0.86,0.014,1.284,0.031V65.91  c5.48-0.029,11.06,0.551,14.55,1.91c7.743,3.014,18.98,22.812,29.27,15.615C105.141,76.334,96.366,46.619,93.406,38.069z   M39.205,49.128h-5.892v5.892c0,2.357-1.829,4.266-4.064,4.266c-2.236,0-4.064-1.908-4.064-4.266v-5.892h-5.892  c-2.357,0-4.266-1.83-4.266-4.062c0-2.237,1.909-4.064,4.266-4.064h5.892V35.11c0-2.355,1.829-4.267,4.064-4.267  c2.235,0,4.064,1.911,4.064,4.267v5.892h5.892c2.356,0,4.265,1.827,4.265,4.064C43.469,47.298,41.561,49.128,39.205,49.128z   M64.82,48.403c-1.777,1.775-4.663,1.775-6.438,0c-1.776-1.776-1.776-4.662,0-6.437c1.775-1.777,4.661-1.777,6.438,0  C66.597,43.741,66.597,46.627,64.82,48.403z M74.261,57.846c-1.776,1.777-4.66,1.777-6.436,0c-1.778-1.775-1.778-4.662,0-6.439  c1.775-1.776,4.659-1.776,6.436,0C76.039,53.182,76.039,56.07,74.261,57.846z M74.475,38.745c-1.774,1.778-4.66,1.778-6.436,0  c-1.778-1.776-1.778-4.66,0-6.436c1.775-1.776,4.661-1.776,6.436,0C76.251,34.085,76.251,36.969,74.475,38.745z M83.919,48.189  c-1.776,1.775-4.661,1.775-6.437,0c-1.779-1.776-1.779-4.661,0-6.438c1.775-1.776,4.66-1.776,6.437,0  C85.693,43.528,85.693,46.413,83.919,48.189z"
    fill="white"
  ></path>
</svg>
