<svg width="120" height="40" xmlns="http://www.w3.org/2000/svg"><path fill="black" d="M0 0h120v40H0z"/><path d="M24.769 20.3a4.947 4.947 0 012.356-4.151 5.064 5.064 0 00-3.99-2.158c-1.68-.176-3.308 1.005-4.164 1.005-.872 0-2.19-.988-3.608-.958a5.315 5.315 0 00-4.473 2.727c-1.934 3.349-.492 8.27 1.361 10.977.927 1.325 2.01 2.805 3.428 2.753 1.387-.058 1.905-.885 3.58-.885 1.658 0 2.144.885 3.59.852 1.489-.025 2.426-1.332 3.32-2.67a10.96 10.96 0 001.52-3.092 4.782 4.782 0 01-2.92-4.4zM22.037 12.21a4.873 4.873 0 001.115-3.49 4.957 4.957 0 00-3.208 1.66 4.638 4.638 0 00-1.143 3.361 4.1 4.1 0 003.236-1.53zM42.302 27.14H37.57l-1.137 3.356h-2.005l4.484-12.418h2.083l4.483 12.418h-2.039l-1.136-3.356zm-4.243-1.55h3.752l-1.85-5.447h-.051l-1.85 5.448zM55.16 25.97c0 2.813-1.506 4.62-3.779 4.62a3.07 3.07 0 01-2.848-1.583h-.043v4.484H46.63V21.442h1.8v1.506h.033a3.212 3.212 0 012.883-1.6c2.298 0 3.813 1.816 3.813 4.622zm-1.91 0c0-1.833-.948-3.038-2.393-3.038-1.42 0-2.375 1.23-2.375 3.038 0 1.824.955 3.046 2.375 3.046 1.445 0 2.392-1.197 2.392-3.046zM65.124 25.97c0 2.813-1.505 4.62-3.778 4.62a3.07 3.07 0 01-2.848-1.583h-.043v4.484h-1.859V21.442h1.799v1.506h.034a3.212 3.212 0 012.883-1.6c2.298 0 3.813 1.816 3.813 4.622zm-1.91 0c0-1.833-.947-3.038-2.392-3.038-1.42 0-2.375 1.23-2.375 3.038 0 1.824.955 3.046 2.375 3.046 1.445 0 2.392-1.197 2.392-3.046zM71.71 27.036c.138 1.232 1.335 2.04 2.97 2.04 1.566 0 2.693-.809 2.693-1.919 0-.964-.68-1.54-2.29-1.936l-1.609-.388c-2.28-.55-3.339-1.617-3.339-3.348 0-2.142 1.867-3.614 4.519-3.614 2.624 0 4.423 1.472 4.483 3.614h-1.876c-.112-1.239-1.136-1.987-2.634-1.987-1.497 0-2.521.757-2.521 1.858 0 .878.654 1.395 2.255 1.79l1.368.336c2.548.603 3.606 1.626 3.606 3.443 0 2.323-1.85 3.778-4.793 3.778-2.754 0-4.614-1.42-4.734-3.667h1.902zM83.346 19.3v2.142h1.722v1.472h-1.722v4.991c0 .776.345 1.137 1.102 1.137.204-.004.408-.018.611-.043v1.463c-.34.063-.686.092-1.032.086-1.833 0-2.548-.689-2.548-2.444v-5.19h-1.316v-1.472h1.316V19.3h1.867zM86.065 25.97c0-2.849 1.678-4.639 4.294-4.639 2.625 0 4.295 1.79 4.295 4.639 0 2.856-1.661 4.638-4.295 4.638-2.633 0-4.294-1.782-4.294-4.638zm6.695 0c0-1.954-.895-3.108-2.401-3.108-1.506 0-2.4 1.162-2.4 3.108 0 1.962.894 3.106 2.4 3.106 1.506 0 2.401-1.144 2.401-3.106zM96.186 21.442h1.772v1.541h.043a2.16 2.16 0 012.178-1.635c.214-.001.428.022.637.069v1.738a2.597 2.597 0 00-.835-.112 1.873 1.873 0 00-1.937 2.083v5.37h-1.858v-9.054zM109.384 27.837c-.25 1.643-1.85 2.771-3.898 2.771-2.634 0-4.269-1.764-4.269-4.595 0-2.84 1.644-4.682 4.191-4.682 2.505 0 4.08 1.72 4.08 4.466v.637h-6.395v.112a2.353 2.353 0 00.639 1.832 2.364 2.364 0 001.797.732 2.045 2.045 0 002.091-1.273h1.764zm-6.282-2.702h4.526a2.166 2.166 0 00-.608-1.634 2.168 2.168 0 00-1.612-.664 2.291 2.291 0 00-2.306 2.298zM37.826 8.731a2.64 2.64 0 012.808 2.965c0 1.906-1.03 3.002-2.808 3.002h-2.155V8.73h2.155zm-1.228 5.123h1.125a1.876 1.876 0 001.967-2.146 1.882 1.882 0 00-1.967-2.134h-1.125v4.28zM41.68 12.444a2.132 2.132 0 114.248 0 2.136 2.136 0 01-2.124 2.34 2.135 2.135 0 01-2.123-2.34zm3.334 0c0-.976-.439-1.546-1.208-1.546-.773 0-1.207.57-1.207 1.546 0 .984.434 1.55 1.207 1.55.77 0 1.208-.57 1.208-1.55zM51.573 14.698h-.922l-.93-3.317h-.07l-.927 3.317h-.913l-1.242-4.503h.902l.806 3.436h.067l.926-3.436h.852l.926 3.436h.07l.803-3.436h.889l-1.237 4.503zM53.853 10.195h.856v.715h.066a1.348 1.348 0 011.344-.802 1.464 1.464 0 011.559 1.675v2.915h-.889v-2.692c0-.724-.314-1.084-.972-1.084a1.032 1.032 0 00-1.075 1.141v2.635h-.889v-4.503zM59.094 8.437h.888v6.26h-.888v-6.26zM61.218 12.444a2.134 2.134 0 114.247 0 2.133 2.133 0 11-4.247 0zm3.333 0c0-.976-.439-1.546-1.208-1.546-.773 0-1.207.57-1.207 1.546 0 .984.434 1.55 1.207 1.55.77 0 1.208-.57 1.208-1.55zM66.4 13.424c0-.81.604-1.277 1.676-1.344l1.22-.07v-.389c0-.476-.315-.744-.922-.744-.496 0-.84.182-.939.5h-.86c.09-.773.818-1.27 1.84-1.27 1.128 0 1.765.563 1.765 1.514v3.077h-.855v-.633h-.07a1.515 1.515 0 01-1.353.707 1.36 1.36 0 01-1.501-1.348zm2.895-.384v-.377l-1.1.07c-.62.042-.9.253-.9.65 0 .405.351.64.834.64a1.064 1.064 0 001.166-.983zM71.348 12.444c0-1.423.732-2.324 1.87-2.324a1.484 1.484 0 011.38.79h.067V8.437h.888v6.26h-.851v-.71h-.07a1.563 1.563 0 01-1.415.785c-1.145 0-1.869-.901-1.869-2.328zm.918 0c0 .955.45 1.53 1.203 1.53.75 0 1.212-.583 1.212-1.526 0-.938-.468-1.53-1.212-1.53-.748 0-1.203.58-1.203 1.526zM79.23 12.444a2.132 2.132 0 114.247 0 2.135 2.135 0 11-4.247 0zm3.333 0c0-.976-.439-1.546-1.208-1.546-.773 0-1.207.57-1.207 1.546 0 .984.435 1.55 1.207 1.55.77 0 1.208-.57 1.208-1.55zM84.67 10.195h.855v.715h.066a1.348 1.348 0 011.344-.802 1.464 1.464 0 011.559 1.675v2.915h-.889v-2.692c0-.724-.314-1.084-.972-1.084a1.032 1.032 0 00-1.075 1.141v2.635h-.889v-4.503zM93.515 9.074v1.141h.976v.749h-.976v2.315c0 .472.195.678.637.678.113 0 .226-.007.339-.02v.74c-.16.029-.322.044-.484.046-.988 0-1.382-.348-1.382-1.216v-2.543h-.714v-.749h.715V9.074h.89zM95.705 8.437h.88v2.481h.07a1.385 1.385 0 011.374-.806 1.482 1.482 0 011.55 1.678v2.908h-.889V12.01c0-.72-.335-1.084-.963-1.084a1.051 1.051 0 00-1.134 1.142v2.63h-.888V8.437zM104.761 13.482a1.823 1.823 0 01-1.951 1.303 2.045 2.045 0 01-2.08-2.325 2.076 2.076 0 012.076-2.352c1.253 0 2.009.856 2.009 2.27v.31h-3.18v.05a1.19 1.19 0 001.199 1.29 1.08 1.08 0 001.072-.546h.855zm-3.126-1.451h2.275a1.09 1.09 0 00-1.109-1.167 1.15 1.15 0 00-1.166 1.167z" fill="white"/></svg>