<svg xmlns="http://www.w3.org/2000/svg" xmlns:xlink="http://www.w3.org/1999/xlink" version="1.1" x="0px" y="0px" viewBox="0 0 100 100" enable-background="new 0 0 100 100" xml:space="preserve" style="max-width:100%" height="100%"><g style="" fill="rgb(249, 186, 56)"><g style="" fill="rgb(249, 186, 56)"><path fill="rgb(249, 186, 56)" d="M98,41.108c0-4.928-3.599-9.01-8.315-9.781c-0.009-0.012-0.023-0.023-0.034-0.027l-21.014-2.83    L59.425,9.803c-1.432-3.726-5.032-6.379-9.264-6.379c-4.385,0-8.102,2.844-9.414,6.789L31.906,28.47l-20.562,2.716    c-0.002,0.012-0.005,0.028-0.008,0.04c-5.06,0.463-9.021,4.711-9.021,9.883c0,3.264,1.578,6.148,4.005,7.964l14.238,14.334    l-3.461,19.008c0.011,0.006,0.021,0.011,0.033,0.016c-0.381,1.055-0.598,2.181-0.598,3.363c0,5.484,4.445,9.93,9.933,9.93    c1.855,0,3.59-0.517,5.082-1.409l18.725-9.319l17.992,9.01c1.594,1.087,3.519,1.719,5.593,1.719c5.482,0,9.927-4.445,9.927-9.93    c0-0.286-0.021-0.574-0.046-0.862c0.019-0.01,0.028-0.021,0.046-0.037l-3.795-21.487l14.624-14.735    c-0.001-0.013-0.021-0.039-0.039-0.068C96.668,46.783,98,44.106,98,41.108z" style=""></path></g></g></svg>