<svg xmlns="http://www.w3.org/2000/svg" xmlns:xlink="http://www.w3.org/1999/xlink" version="1.1" x="0px" y="0px" viewBox="0 0 100 100" enable-background="new 0 0 100 100" xml:space="preserve" style="max-width:100%" height="100%"><path fill-rule="evenodd" clip-rule="evenodd" d="M69.376236,6.4091072c-10.5328827-1.8781395-28.2181816-1.8794794-38.7524719,0  c-3.7769127,0.8649116-5.9372826,2.5179634-6.3788815,7.2113028c0,23.374649,0,49.3823509,0,72.7582779  c0.4415989,4.6961517,2.6019688,6.3464584,6.3788815,7.2127075c10.5456753,1.8781433,28.2081318,1.8781433,38.7524719,0  c3.7769089-0.8662491,5.9363403-2.5165558,6.3788834-7.2127075c0-23.3745804,0-49.3850327,0-72.7582779  C75.3125763,8.9270706,73.1531448,7.2740188,69.376236,6.4091072z M45.0318985,71.773201h-4.3841782v4.3828354h-4.3828392V71.773201  h-4.3842449v-4.3842468h4.3842449l-0.0620995-4.4513054l4.4449387,0.0671234v4.384182h4.3841782V71.773201z M58.4749069,74.3997498  c-1.3971481,0-2.5326347-1.1339417-2.5326347-2.5320969c0-1.3971481,1.1354866-2.5326309,2.5326347-2.5326309  c1.3981552,0,2.5337067,1.1354828,2.5337067,2.5326309C61.0086136,73.2658081,59.8730621,74.3997498,58.4749069,74.3997498z   M65.6433334,69.335022c-1.3966141,0-2.5321617-1.1324081-2.5321617-2.5305634c0-1.3997574,1.1355476-2.5337067,2.5321617-2.5337067  c1.3996964,0,2.533638,1.1339493,2.533638,2.5337067C68.1769714,68.2026138,67.0430298,69.335022,65.6433334,69.335022z   M68.6305695,51.3374786H31.3694344V13.8688097h37.2611351V51.3374786z" style="" fill="rgb(249, 186, 56)"></path></svg>