<svg width="135" height="40" xmlns="http://www.w3.org/2000/svg"><path fill="black" d="M0 0h135v40H0z"/><path d="M47.42 10.24a2.71 2.71 0 01-.75 2 2.91 2.91 0 01-2.2.89 3.15 3.15 0 01-2.21-5.37 3 3 0 012.21-.9 3.1 3.1 0 011.23.25c.362.146.684.376.94.67l-.53.53a2 2 0 00-1.64-.71 2.32 2.32 0 00-2.33 2.4 2.36 2.36 0 004 1.73 1.89 1.89 0 00.5-1.22h-2.17v-.72h2.91c.027.149.04.3.04.45zM52 7.74h-2.7v1.9h2.46v.72H49.3v1.9H52V13h-3.5V7H52v.74zM55.28 13h-.77V7.74h-1.68V7H57v.74h-1.72V13zM59.94 13V7h.77v6h-.77zM64.13 13h-.77V7.74h-1.68V7h4.12v.74h-1.67V13zM73.61 12.22a3.12 3.12 0 01-4.4 0 3.24 3.24 0 010-4.45 3.1 3.1 0 014.4 0 3.23 3.23 0 010 4.45zm-3.83-.5a2.31 2.31 0 003.26 0 2.56 2.56 0 000-3.44 2.31 2.31 0 00-3.26 0 2.56 2.56 0 000 3.44zM75.58 13V7h.94l2.92 4.67V7h.77v6h-.8l-3.05-4.89V13h-.78z" fill="white" stroke="white" stroke-width=".2" stroke-miterlimit="10"/><path d="M68.14 21.75A4.25 4.25 0 1072.41 26a4.19 4.19 0 00-4.27-4.25zm0 6.83a2.58 2.58 0 112.4-2.58 2.46 2.46 0 01-2.4 2.58zm-9.31-6.83A4.25 4.25 0 1063.09 26a4.19 4.19 0 00-4.27-4.25h.01zm0 6.83A2.58 2.58 0 1161.22 26a2.46 2.46 0 01-2.4 2.58h.01zm-11.09-5.52v1.8h4.32a3.77 3.77 0 01-1 2.27 4.422 4.422 0 01-3.33 1.32 4.8 4.8 0 010-9.6A4.6 4.6 0 0151 20.14l1.27-1.27A6.288 6.288 0 0047.74 17a6.61 6.61 0 100 13.21 6 6 0 004.61-1.85 6 6 0 001.56-4.22 5.875 5.875 0 00-.1-1.13l-6.07.05zm45.31 1.4a4 4 0 00-3.64-2.71 4.001 4.001 0 00-4 4.25 4.161 4.161 0 004.22 4.25 4.23 4.23 0 003.54-1.88l-1.45-1a2.43 2.43 0 01-2.09 1.18 2.16 2.16 0 01-2.06-1.29l5.69-2.35-.21-.45zm-5.8 1.42a2.33 2.33 0 012.22-2.48 1.65 1.65 0 011.58.9l-3.8 1.58zM82.63 30h1.87V17.5h-1.87V30zm-3.06-7.3h-.07a3 3 0 00-2.24-1 4.26 4.26 0 000 8.51 2.9 2.9 0 002.24-1h.06v.61c0 1.63-.87 2.5-2.27 2.5a2.35 2.35 0 01-2.14-1.51l-1.63.68A4.05 4.05 0 0077.29 34c2.19 0 4-1.29 4-4.43V22h-1.72v.7zm-2.14 5.88a2.59 2.59 0 010-5.16A2.402 2.402 0 0179.7 26a2.38 2.38 0 01-2.28 2.58h.01zm24.38-11.08h-4.47V30h1.87v-4.74h2.61a3.889 3.889 0 100-7.76h-.01zm0 6H99.2v-4.26h2.65a2.147 2.147 0 011.517 3.662 2.147 2.147 0 01-1.517.628l-.04-.03zm11.53-1.8a3.498 3.498 0 00-3.33 1.91l1.66.69a1.777 1.777 0 011.7-.92 1.804 1.804 0 011.792.931c.114.21.184.441.208.679v.13a4.13 4.13 0 00-1.95-.48c-1.79 0-3.6 1-3.6 2.81a2.904 2.904 0 00.969 2.03 2.892 2.892 0 002.131.72 2.634 2.634 0 002.4-1.2h.06v1h1.8v-4.81c0-2.19-1.66-3.46-3.79-3.46l-.05-.03zm-.23 6.85c-.61 0-1.46-.31-1.46-1.06 0-1 1.06-1.33 2-1.33a3.32 3.32 0 011.7.42 2.264 2.264 0 01-2.19 2l-.05-.03zM123.74 22l-2.14 5.42h-.06L119.32 22h-2l3.33 7.58-1.9 4.21h1.95L125.82 22h-2.08zm-16.81 8h1.87V17.5h-1.87V30z" fill="white"/><path d="M10.44 7.54a2 2 0 00-.46 1.4v22.12a2 2 0 00.46 1.4l.07.07L22.9 20.15v-.29L10.51 7.47l-.07.07z" fill="url(#paint0_linear)"/><path d="M27 24.28l-4.1-4.13v-.29l4.1-4.14.09.05L32 18.56c1.4.79 1.4 2.09 0 2.89l-4.89 2.78-.11.05z" fill="url(#paint1_linear)"/><path d="M27.12 24.22L22.9 20 10.44 32.46a1.63 1.63 0 002.08.06l14.61-8.3" fill="url(#paint2_linear)"/><path d="M27.12 15.78l-14.61-8.3a1.63 1.63 0 00-2.08.06L22.9 20l4.22-4.22z" fill="url(#paint3_linear)"/><path opacity=".2" d="M27 24.13l-14.49 8.25a1.67 1.67 0 01-2 0l-.07.07.07.07a1.66 1.66 0 002 0l14.61-8.3-.12-.09z" fill="black"/><path opacity=".12" d="M10.44 32.32a2 2 0 01-.46-1.4v.15a2 2 0 00.46 1.4l.07-.07-.07-.08zM32 21.3l-5 2.83.09.09L32 21.44A1.75 1.75 0 0033 20a1.86 1.86 0 01-1 1.3z" fill="black"/><path opacity=".25" d="M12.51 7.62L32 18.7a1.86 1.86 0 011 1.3 1.75 1.75 0 00-1-1.44L12.51 7.48c-1.4-.79-2.54-.13-2.54 1.47v.15c.03-1.61 1.15-2.27 2.54-1.48z" fill="white"/><defs><linearGradient id="paint0_linear" x1="21.8" y1="8.71" x2="5.02" y2="25.49" gradientUnits="userSpaceOnUse"><stop stop-color="rgba(0, 160, 255, 1)"/><stop offset=".01" stop-color="rgba(0, 161, 255, 1)"/><stop offset=".26" stop-color="rgba(0, 190, 255, 1)"/><stop offset=".51" stop-color="rgba(0, 210, 255, 1)"/><stop offset=".76" stop-color="rgba(0, 223, 255, 1)"/><stop offset="1" stop-color="rgba(0, 227, 255, 1)"/></linearGradient><linearGradient id="paint1_linear" x1="33.83" y1="20" x2="9.64" y2="20" gradientUnits="userSpaceOnUse"><stop stop-color="rgba(255, 224, 0, 1)"/><stop offset=".41" stop-color="rgba(255, 189, 0, 1)"/><stop offset=".78" stop-color="rgba(255, 165, 0, 1)"/><stop offset="1" stop-color="rgba(255, 156, 0, 1)"/></linearGradient><linearGradient id="paint2_linear" x1="24.83" y1="22.3" x2="2.07" y2="45.05" gradientUnits="userSpaceOnUse"><stop stop-color="rgba(255, 58, 68, 1)"/><stop offset="1" stop-color="rgba(195, 17, 98, 1)"/></linearGradient><linearGradient id="paint3_linear" x1="7.3" y1=".18" x2="17.46" y2="10.34" gradientUnits="userSpaceOnUse"><stop stop-color="rgba(50, 160, 113, 1)"/><stop offset=".07" stop-color="rgba(45, 167, 113, 1)"/><stop offset=".48" stop-color="rgba(21, 207, 116, 1)"/><stop offset=".8" stop-color="rgba(6, 231, 117, 1)"/><stop offset="1" stop-color="rgba(0, 240, 118, 1)"/></linearGradient></defs></svg>